<svg width="17" height="17" viewBox="0 0 17 17" fill="none" xmlns="http://www.w3.org/2000/svg">
<path d="M8.43681 15.015C12.1187 15.015 15.1035 12.0302 15.1035 8.34831C15.1035 4.66641 12.1187 1.68164 8.43681 1.68164C4.75491 1.68164 1.77014 4.66641 1.77014 8.34831C1.77014 12.0302 4.75491 15.015 8.43681 15.015Z" stroke="#F8FAFC" stroke-width="1.33333" stroke-linecap="round" stroke-linejoin="round"/>
<path d="M8.43681 11.015C9.90957 11.015 11.1035 9.82107 11.1035 8.34831C11.1035 6.87555 9.90957 5.68164 8.43681 5.68164C6.96405 5.68164 5.77014 6.87555 5.77014 8.34831C5.77014 9.82107 6.96405 11.015 8.43681 11.015Z" stroke="#F8FAFC" stroke-width="1.33333" stroke-linecap="round" stroke-linejoin="round"/>
<path d="M14.5501 5.68164H8.43677" stroke="#F8FAFC" stroke-width="1.33333" stroke-linecap="round" stroke-linejoin="round"/>
<path d="M3.07007 4.38818L6.13007 9.68152" stroke="#F8FAFC" stroke-width="1.33333" stroke-linecap="round" stroke-linejoin="round"/>
<path d="M7.69006 14.975L10.7434 9.68164" stroke="#F8FAFC" stroke-width="1.33333" stroke-linecap="round" stroke-linejoin="round"/>
</svg>
