<svg width="17" height="17" viewBox="0 0 17 17" fill="none" xmlns="http://www.w3.org/2000/svg">
<path d="M8.96191 2.33838H4.29525C3.94163 2.33838 3.60249 2.47885 3.35244 2.7289C3.10239 2.97895 2.96191 3.31809 2.96191 3.67171V13.005C2.96191 13.3587 3.10239 13.6978 3.35244 13.9479C3.60249 14.1979 3.94163 14.3384 4.29525 14.3384H13.6286C13.9822 14.3384 14.3213 14.1979 14.5714 13.9479C14.8214 13.6978 14.9619 13.3587 14.9619 13.005V8.33838" stroke="#F8FAFC" stroke-width="1.33333" stroke-linecap="round" stroke-linejoin="round"/>
<path d="M13.2118 2.08853C13.477 1.82331 13.8368 1.67432 14.2118 1.67432C14.5869 1.67432 14.9466 1.82331 15.2118 2.08853C15.477 2.35375 15.626 2.71346 15.626 3.08853C15.626 3.4636 15.477 3.82331 15.2118 4.08853L8.96183 10.3385L6.29517 11.0052L6.96183 8.33853L13.2118 2.08853Z" stroke="#F8FAFC" stroke-width="1.33333" stroke-linecap="round" stroke-linejoin="round"/>
</svg>
