<svg width="17" height="17" viewBox="0 0 17 17" fill="none" xmlns="http://www.w3.org/2000/svg">
<path d="M10.4367 15.015V12.3483C10.5295 11.5132 10.29 10.6751 9.77004 10.015C11.77 10.015 13.77 8.68164 13.77 6.34831C13.8234 5.51497 13.59 4.69497 13.1034 4.01497C13.29 3.24831 13.29 2.44831 13.1034 1.68164C13.1034 1.68164 12.4367 1.68164 11.1034 2.68164C9.34338 2.34831 7.53004 2.34831 5.77004 2.68164C4.43671 1.68164 3.77004 1.68164 3.77004 1.68164C3.57004 2.44831 3.57004 3.24831 3.77004 4.01497C3.28463 4.69223 3.04903 5.51683 3.10338 6.34831C3.10338 8.68164 5.10338 10.015 7.10338 10.015C6.84338 10.3416 6.65004 10.715 6.53671 11.115C6.42338 11.515 6.39004 11.935 6.43671 12.3483V15.015" stroke="#F8FAFC" stroke-width="1.33333" stroke-linecap="round" stroke-linejoin="round"/>
<path d="M6.43681 12.348C3.43014 13.6813 3.10347 11.0146 1.77014 11.0146" stroke="#F8FAFC" stroke-width="1.33333" stroke-linecap="round" stroke-linejoin="round"/>
</svg>
