<svg width="21" height="21" viewBox="0 0 21 21" fill="none" xmlns="http://www.w3.org/2000/svg">
<path d="M16.2701 9.51465H4.60343C3.68296 9.51465 2.93677 10.2608 2.93677 11.1813V17.0146C2.93677 17.9351 3.68296 18.6813 4.60343 18.6813H16.2701C17.1906 18.6813 17.9368 17.9351 17.9368 17.0146V11.1813C17.9368 10.2608 17.1906 9.51465 16.2701 9.51465Z" stroke="#9CA3AF" stroke-width="1.66667" stroke-linecap="round" stroke-linejoin="round"/>
<path d="M6.27008 9.51465V6.18132C6.27008 5.07625 6.70907 4.01644 7.49047 3.23504C8.27187 2.45364 9.33168 2.01465 10.4367 2.01465C11.5418 2.01465 12.6016 2.45364 13.383 3.23504C14.1644 4.01644 14.6034 5.07625 14.6034 6.18132V9.51465" stroke="#9CA3AF" stroke-width="1.66667" stroke-linecap="round" stroke-linejoin="round"/>
</svg>
