<svg width="80" height="81" viewBox="0 0 80 81" fill="none" xmlns="http://www.w3.org/2000/svg">
<path d="M20 37.1667H33.3333" stroke="#00D4FF" stroke-width="6.66667" stroke-linecap="round" stroke-linejoin="round"/>
<path d="M26.6667 30.5V43.8333" stroke="#00D4FF" stroke-width="6.66667" stroke-linecap="round" stroke-linejoin="round"/>
<path d="M50 40.5H50.0333" stroke="#00D4FF" stroke-width="6.66667" stroke-linecap="round" stroke-linejoin="round"/>
<path d="M60 33.8333H60.0333" stroke="#00D4FF" stroke-width="6.66667" stroke-linecap="round" stroke-linejoin="round"/>
<path d="M57.7333 17.1667H22.2667C18.9676 17.1674 15.786 18.3912 13.3368 20.6015C10.8876 22.8118 9.34483 25.8516 9.00667 29.1333C8.98667 29.3067 8.97334 29.47 8.95 29.64C8.68 31.8867 6.66667 48.6867 6.66667 53.8333C6.66667 56.4855 7.72024 59.029 9.5956 60.9044C11.471 62.7798 14.0145 63.8333 16.6667 63.8333C20 63.8333 21.6667 62.1667 23.3333 60.5L28.0467 55.7867C29.2966 54.5363 30.992 53.8337 32.76 53.8333H47.24C49.008 53.8337 50.7034 54.5363 51.9533 55.7867L56.6667 60.5C58.3333 62.1667 60 63.8333 63.3333 63.8333C65.9855 63.8333 68.529 62.7798 70.4044 60.9044C72.2798 59.029 73.3333 56.4855 73.3333 53.8333C73.3333 48.6833 71.32 31.8867 71.05 29.64C71.0267 29.4733 71.0133 29.3067 70.9933 29.1367C70.656 25.8544 69.1135 22.8138 66.6643 20.6028C64.215 18.3918 61.0329 17.1675 57.7333 17.1667Z" stroke="#00D4FF" stroke-width="6.66667" stroke-linecap="round" stroke-linejoin="round"/>
</svg>
