<svg width="187" height="53" viewBox="0 0 187 53" fill="none" xmlns="http://www.w3.org/2000/svg">
<path d="M52.57 29.5L60.25 8.2H65.65L73.33 29.5H68.59L67.03 24.97H58.84L57.28 29.5H52.57ZM60.13 21.22H65.77L62.95 13L60.13 21.22ZM75.3723 29.5V8.2H84.7023C86.2623 8.2 87.6123 8.46 88.7523 8.98C89.9123 9.5 90.8023 10.24 91.4223 11.2C92.0423 12.14 92.3523 13.26 92.3523 14.56C92.3523 15.54 92.1423 16.41 91.7223 17.17C91.3223 17.93 90.7623 18.55 90.0423 19.03C89.3423 19.51 88.5323 19.81 87.6123 19.93L87.5223 19.66C88.9423 19.66 90.0223 19.97 90.7623 20.59C91.5023 21.19 91.9223 22.12 92.0223 23.38L92.5623 29.5H87.9123L87.5223 24.1C87.4623 23.28 87.2023 22.68 86.7423 22.3C86.3023 21.9 85.5423 21.7 84.4623 21.7H79.9323V29.5H75.3723ZM79.9323 17.89H84.1923C85.2923 17.89 86.1423 17.64 86.7423 17.14C87.3623 16.62 87.6723 15.89 87.6723 14.95C87.6723 13.99 87.3623 13.27 86.7423 12.79C86.1223 12.29 85.2223 12.04 84.0423 12.04H79.9323V17.89ZM104.881 29.98C102.941 29.98 101.211 29.54 99.6909 28.66C98.1909 27.78 97.0109 26.51 96.1509 24.85C95.3109 23.19 94.8909 21.2 94.8909 18.88C94.8909 16.62 95.3009 14.66 96.1209 13C96.9409 11.32 98.1109 10.02 99.6309 9.1C101.151 8.18 102.931 7.72 104.971 7.72C107.751 7.72 109.911 8.41 111.451 9.79C113.011 11.15 114.011 13.1 114.451 15.64L109.711 15.82C109.471 14.48 108.951 13.44 108.151 12.7C107.351 11.94 106.291 11.56 104.971 11.56C103.831 11.56 102.861 11.86 102.061 12.46C101.261 13.06 100.651 13.91 100.231 15.01C99.8109 16.11 99.6009 17.4 99.6009 18.88C99.6009 20.38 99.8109 21.68 100.231 22.78C100.671 23.86 101.291 24.69 102.091 25.27C102.891 25.85 103.841 26.14 104.941 26.14C106.381 26.14 107.491 25.74 108.271 24.94C109.071 24.12 109.571 22.99 109.771 21.55L114.541 21.73C114.261 23.47 113.711 24.95 112.891 26.17C112.071 27.39 110.991 28.33 109.651 28.99C108.331 29.65 106.741 29.98 104.881 29.98ZM115.353 29.5L123.033 8.2H128.433L136.113 29.5H131.373L129.813 24.97H121.623L120.063 29.5H115.353ZM122.913 21.22H128.553L125.733 13L122.913 21.22ZM138.156 29.5V8.2H145.506C148.966 8.2 151.626 9.13 153.486 10.99C155.346 12.83 156.276 15.46 156.276 18.88C156.276 22.28 155.356 24.9 153.516 26.74C151.696 28.58 149.086 29.5 145.686 29.5H138.156ZM142.716 25.66H145.506C147.566 25.66 149.086 25.11 150.066 24.01C151.066 22.89 151.566 21.17 151.566 18.85C151.566 16.53 151.066 14.82 150.066 13.72C149.086 12.6 147.566 12.04 145.506 12.04H142.716V25.66ZM159.279 29.5V8.2H163.839V29.5H159.279ZM176.234 29.98C174.394 29.98 172.814 29.67 171.494 29.05C170.174 28.43 169.144 27.56 168.404 26.44C167.664 25.32 167.244 24 167.144 22.48L171.734 22.27C171.854 23.11 172.094 23.83 172.454 24.43C172.834 25.01 173.334 25.45 173.954 25.75C174.594 26.05 175.374 26.2 176.294 26.2C177.054 26.2 177.694 26.11 178.214 25.93C178.754 25.75 179.164 25.48 179.444 25.12C179.724 24.74 179.864 24.28 179.864 23.74C179.864 23.24 179.744 22.81 179.504 22.45C179.264 22.07 178.804 21.73 178.124 21.43C177.444 21.11 176.444 20.8 175.124 20.5C173.304 20.08 171.834 19.61 170.714 19.09C169.614 18.57 168.814 17.92 168.314 17.14C167.814 16.34 167.564 15.34 167.564 14.14C167.564 12.86 167.874 11.74 168.494 10.78C169.134 9.82 170.054 9.07 171.254 8.53C172.454 7.99 173.884 7.72 175.544 7.72C177.304 7.72 178.794 8.03 180.014 8.65C181.234 9.27 182.184 10.12 182.864 11.2C183.564 12.28 183.984 13.52 184.124 14.92L179.564 15.16C179.504 14.42 179.304 13.78 178.964 13.24C178.624 12.68 178.164 12.25 177.584 11.95C177.004 11.65 176.304 11.5 175.484 11.5C174.444 11.5 173.624 11.73 173.024 12.19C172.444 12.65 172.154 13.25 172.154 13.99C172.154 14.51 172.284 14.95 172.544 15.31C172.824 15.65 173.274 15.95 173.894 16.21C174.534 16.47 175.434 16.72 176.594 16.96C178.574 17.36 180.134 17.87 181.274 18.49C182.434 19.09 183.254 19.81 183.734 20.65C184.214 21.49 184.454 22.45 184.454 23.53C184.454 24.85 184.114 26 183.434 26.98C182.774 27.94 181.824 28.68 180.584 29.2C179.364 29.72 177.914 29.98 176.234 29.98Z" fill="url(#paint0_linear_1_306)"/>
<path d="M53.104 48.5V39.98H54.544L57.268 47.372L59.98 39.98H61.42V48.5H60.388V41.9L57.952 48.5H56.572L54.136 41.9V48.5H53.104ZM63.2463 48.5L66.3183 39.98H67.7103L70.7823 48.5H69.6543L68.8023 46.076H65.2263L64.3743 48.5H63.2463ZM65.5743 45.068H68.4543L67.0143 40.88L65.5743 45.068ZM72.4915 48.5V39.98H75.7195C76.3195 39.98 76.8355 40.084 77.2675 40.292C77.6995 40.5 78.0315 40.8 78.2635 41.192C78.5035 41.576 78.6235 42.032 78.6235 42.56C78.6235 42.944 78.5315 43.288 78.3475 43.592C78.1715 43.888 77.9435 44.124 77.6635 44.3C77.3835 44.476 77.0915 44.572 76.7875 44.588L76.7155 44.48C77.2355 44.48 77.6435 44.6 77.9395 44.84C78.2435 45.08 78.4195 45.464 78.4675 45.992L78.7075 48.5H77.6635L77.4475 46.1C77.4155 45.748 77.2875 45.488 77.0635 45.32C76.8475 45.152 76.4915 45.068 75.9955 45.068H73.5235V48.5H72.4915ZM73.5235 44.06H75.8515C76.3715 44.06 76.7835 43.928 77.0875 43.664C77.3915 43.4 77.5435 43.024 77.5435 42.536C77.5435 42.04 77.3875 41.66 77.0755 41.396C76.7635 41.124 76.3115 40.988 75.7195 40.988H73.5235V44.06ZM80.9782 48.5V39.98H82.0102V44.216L85.8382 39.98H87.1462L83.8102 43.676L87.3742 48.5H86.1142L83.1142 44.444L82.0102 45.656V48.5H80.9782ZM89.1368 48.5V39.98H94.4888V40.988H90.1688V43.736H94.3448V44.72H90.1688V47.492H94.5848V48.5H89.1368ZM98.6593 48.5V40.988H96.0073V39.98H102.343V40.988H99.6913V48.5H98.6593ZM103.825 48.5V39.98H106.885C107.837 39.98 108.577 40.208 109.105 40.664C109.633 41.12 109.897 41.752 109.897 42.56C109.897 43.104 109.777 43.576 109.537 43.976C109.297 44.368 108.953 44.668 108.505 44.876C108.057 45.084 107.517 45.188 106.885 45.188H104.857V48.5H103.825ZM104.857 44.18H106.885C107.525 44.18 108.005 44.044 108.325 43.772C108.653 43.5 108.817 43.096 108.817 42.56C108.817 42.04 108.653 41.648 108.325 41.384C108.005 41.12 107.525 40.988 106.885 40.988H104.857V44.18ZM112.23 48.5V39.98H113.262V48.02L112.746 47.492H117.522V48.5H112.23ZM118.692 48.5L121.764 39.98H123.156L126.228 48.5H125.1L124.248 46.076H120.672L119.82 48.5H118.692ZM121.02 45.068H123.9L122.46 40.88L121.02 45.068ZM131.073 48.692C130.313 48.692 129.645 48.516 129.069 48.164C128.493 47.804 128.045 47.292 127.725 46.628C127.405 45.964 127.245 45.172 127.245 44.252C127.245 43.332 127.405 42.54 127.725 41.876C128.045 41.204 128.493 40.688 129.069 40.328C129.645 39.968 130.313 39.788 131.073 39.788C132.105 39.788 132.905 40.048 133.473 40.568C134.041 41.088 134.413 41.796 134.589 42.692L133.497 42.764C133.377 42.156 133.121 41.676 132.729 41.324C132.337 40.972 131.785 40.796 131.073 40.796C130.529 40.796 130.049 40.936 129.633 41.216C129.225 41.488 128.905 41.884 128.673 42.404C128.441 42.916 128.325 43.532 128.325 44.252C128.325 44.972 128.441 45.588 128.673 46.1C128.905 46.612 129.225 47.004 129.633 47.276C130.049 47.548 130.529 47.684 131.073 47.684C131.817 47.684 132.393 47.492 132.801 47.108C133.209 46.716 133.465 46.188 133.569 45.524L134.661 45.596C134.557 46.212 134.353 46.752 134.049 47.216C133.745 47.68 133.341 48.044 132.837 48.308C132.341 48.564 131.753 48.692 131.073 48.692ZM136.87 48.5V39.98H142.222V40.988H137.902V43.736H142.078V44.72H137.902V47.492H142.318V48.5H136.87Z" fill="#94A3B8"/>
<path d="M10 24.8333H16.6667" stroke="#00D4FF" stroke-width="3.33333" stroke-linecap="round" stroke-linejoin="round"/>
<path d="M13.3333 21.5V28.1667" stroke="#00D4FF" stroke-width="3.33333" stroke-linecap="round" stroke-linejoin="round"/>
<path d="M25 26.5H25.0167" stroke="#00D4FF" stroke-width="3.33333" stroke-linecap="round" stroke-linejoin="round"/>
<path d="M30 23.1667H30.0167" stroke="#00D4FF" stroke-width="3.33333" stroke-linecap="round" stroke-linejoin="round"/>
<path d="M28.8666 14.8333H11.1333C9.48378 14.8337 7.89296 15.4456 6.66837 16.5508C5.44378 17.6559 4.67239 19.1758 4.50331 20.8167C4.49331 20.9033 4.48665 20.985 4.47498 21.07C4.33998 22.1933 3.33331 30.5933 3.33331 33.1667C3.33331 34.4927 3.8601 35.7645 4.79778 36.7022C5.73546 37.6399 7.00723 38.1667 8.33331 38.1667C9.99998 38.1667 10.8333 37.3333 11.6666 36.5L14.0233 34.1433C14.6483 33.5182 15.496 33.1668 16.38 33.1667H23.62C24.504 33.1668 25.3517 33.5182 25.9766 34.1433L28.3333 36.5C29.1666 37.3333 30 38.1667 31.6666 38.1667C32.9927 38.1667 34.2645 37.6399 35.2022 36.7022C36.1399 35.7645 36.6666 34.4927 36.6666 33.1667C36.6666 30.5917 35.66 22.1933 35.525 21.07C35.5133 20.9867 35.5066 20.9033 35.4966 20.8183C35.328 19.1772 34.5567 17.6569 33.3321 16.5514C32.1075 15.4459 30.5164 14.8338 28.8666 14.8333Z" stroke="#00D4FF" stroke-width="3.33333" stroke-linecap="round" stroke-linejoin="round"/>
<defs>
<linearGradient id="paint0_linear_1_306" x1="52" y1="18.5" x2="187" y2="18.5" gradientUnits="userSpaceOnUse">
<stop stop-color="#00D4FF"/>
<stop offset="1" stop-color="#A855F7"/>
</linearGradient>
</defs>
</svg>
