<svg width="25" height="25" viewBox="0 0 25 25" fill="none" xmlns="http://www.w3.org/2000/svg">
<path d="M6.5769 11.0884H10.5769" stroke="#A855F7" stroke-width="2" stroke-linecap="round" stroke-linejoin="round"/>
<path d="M8.5769 9.08838V13.0884" stroke="#A855F7" stroke-width="2" stroke-linecap="round" stroke-linejoin="round"/>
<path d="M15.5769 12.0884H15.5869" stroke="#A855F7" stroke-width="2" stroke-linecap="round" stroke-linejoin="round"/>
<path d="M18.5769 10.0884H18.5869" stroke="#A855F7" stroke-width="2" stroke-linecap="round" stroke-linejoin="round"/>
<path d="M17.8969 5.08838H7.2569C6.26718 5.08861 5.31269 5.45575 4.57794 6.11884C3.84319 6.78193 3.38035 7.69387 3.2789 8.67838C3.2729 8.73038 3.2689 8.77938 3.2619 8.83038C3.1809 9.50438 2.5769 14.5444 2.5769 16.0884C2.5769 16.884 2.89297 17.6471 3.45558 18.2097C4.01819 18.7723 4.78125 19.0884 5.5769 19.0884C6.5769 19.0884 7.0769 18.5884 7.5769 18.0884L8.9909 16.6744C9.36589 16.2993 9.87451 16.0885 10.4049 16.0884H14.7489C15.2793 16.0885 15.7879 16.2993 16.1629 16.6744L17.5769 18.0884C18.0769 18.5884 18.5769 19.0884 19.5769 19.0884C20.3726 19.0884 21.1356 18.7723 21.6982 18.2097C22.2608 17.6471 22.5769 16.884 22.5769 16.0884C22.5769 14.5434 21.9729 9.50438 21.8919 8.83038C21.8849 8.78038 21.8809 8.73038 21.8749 8.67938C21.7737 7.69469 21.311 6.78251 20.5762 6.11921C19.8414 5.45592 18.8868 5.08864 17.8969 5.08838Z" stroke="#A855F7" stroke-width="2" stroke-linecap="round" stroke-linejoin="round"/>
</svg>
