<svg width="14" height="15" viewBox="0 0 14 15" fill="none" xmlns="http://www.w3.org/2000/svg">
<path d="M1.66667 8.83334C1.54051 8.83377 1.41682 8.7984 1.30997 8.73133C1.20312 8.66426 1.11749 8.56824 1.06303 8.45445C1.00858 8.34065 0.987529 8.21373 1.00233 8.08845C1.01714 7.96316 1.06719 7.84465 1.14667 7.74667L7.74667 0.946674C7.79617 0.889528 7.86364 0.850911 7.93799 0.837162C8.01234 0.823413 8.08915 0.835349 8.15582 0.87101C8.22249 0.906671 8.27506 0.963938 8.30489 1.03341C8.33472 1.10289 8.34005 1.18044 8.32 1.25334L7.04 5.26667C7.00226 5.36769 6.98958 5.47635 7.00306 5.58334C7.01654 5.69034 7.05577 5.79246 7.11739 5.88096C7.17901 5.96946 7.26118 6.04168 7.35685 6.09145C7.45252 6.14121 7.55883 6.16702 7.66667 6.16667H12.3333C12.4595 6.16624 12.5832 6.20162 12.69 6.26869C12.7969 6.33576 12.8825 6.43177 12.937 6.54557C12.9914 6.65937 13.0125 6.78628 12.9977 6.91157C12.9829 7.03685 12.9328 7.15537 12.8533 7.25334L6.25333 14.0533C6.20383 14.1105 6.13636 14.1491 6.06201 14.1629C5.98766 14.1766 5.91085 14.1647 5.84418 14.129C5.77751 14.0933 5.72494 14.0361 5.69511 13.9666C5.66528 13.8971 5.65995 13.8196 5.68 13.7467L6.96 9.73334C6.99774 9.63232 7.01042 9.52366 6.99694 9.41667C6.98346 9.30968 6.94423 9.20755 6.88261 9.11906C6.82099 9.03056 6.73882 8.95833 6.64315 8.90857C6.54748 8.8588 6.44117 8.83299 6.33333 8.83334H1.66667Z" stroke="#A855F7" stroke-width="1.33333" stroke-linecap="round" stroke-linejoin="round"/>
</svg>
